<?xml version="1.0" encoding="UTF-8" standalone="no"?>
<svg
  xmlns="http://www.w3.org/2000/svg"
  width="500pt"
  height="500pt"
  viewBox="0 0 500 500"
  version="1.1">
  <circle
    stroke="#4b9900" stroke-width="40" fill="none"
    r="230" cx="250" cy="250"
  />
  <path
    fill="#4b9900"
    d="M 110 90 V 120 A 190 190 0 0 0 110 380 V 410 A 210 210 0 0 1 110 90 Z"
  />
  <path
    fill="#4b9900"
    d="M 390 90 V 120 A 190 190 0 0 1 390 380 V 410 A 210 210 0 0 0 390 90 Z"
  />
  <path
    stroke="#4b9900" stroke-width="40" fill="none"
    d="M 210 140 L 290 140 L 330 210 L 290 280 L 210 280 L 170 210 Z"
  />
  <path
    stroke="#4b9900" stroke-width="40" fill="none"
    d="M 190 245 L 115 290 Z"
  />
  <path
    stroke="#4b9900" stroke-width="40" fill="none"
    d="M 310 245 L 385 290 Z"
  />
  <path
    stroke="#4b9900" stroke-width="40" fill="none"
    d="M 250 280 L 250 380 Z"
  />
</svg>
